<svg width="10" height="15" viewBox="0 0 39 43" style="fill:#989893" xmlns="http://www.w3.org/2000/svg"><path d="M33.68 28.27c-1.53 0-2.96-.7-3.9-1.9l-1.05-1.34-.99 1.38a5 5 0 0 1-6.91 1.17l-1.14-.81-.7 1.21a6.35 6.35 0 0 1-10.8.38l-.55-.84-.94.36a4.98 4.98 0 0 1-3.54-9.3l.82-.33-.02-1.01c0-2.01 1.1-3.84 2.89-5.18a6.83 6.83 0 0 1 .93-4.65c-1.62-1.5-3.2-3.5-3.53-5.8a1.41 1.41 0 1 1 2.8-.4c.2 1.45 1.36 2.93 2.68 4.15A6.8 6.8 0 0 1 20.05 9c1.2-.36 2.48-.55 3.8-.55 5.77.01 10.46 3.65 10.45 8.1l-.03.65-.11 1.04 1 .31a4.98 4.98 0 0 1-1.46 9.73ZM13.56 6.16c-.8 0-1.54.2-2.2.53.48.35.94.66 1.34.9A1.41 1.41 0 0 1 11.24 10c-.42-.26-1.13-.7-1.93-1.32a4.82 4.82 0 1 0 4.25-2.54ZM11.3 32.82s.4 3.94.51 5.82c.04.73.5 1.05.8 1.12.26.07.76.07.99-.04.32-.16.63-.28.65-1.16a61.7 61.7 0 0 0-.39-5.47c.7-.03 1.38-.14 2.04-.33 0 0 .14 5.68.26 6.46.12.79.7.98 1.23.98.55 0 1.17-.3 1.16-1.19l-.08-7.45a8.89 8.89 0 0 0 2.02-1.9l.15.07s-.14 8.67-.1 9.33c.05.88.63 1.22 1.28 1.22s1.26-.45 1.35-1.16c.08-.66.24-8.74.24-8.74h.29c.66.01 1.32-.08 1.95-.25 0 0-.52 7.68-.43 8.26.12.8.63 1.16 1.3 1.16.65 0 1.21-.48 1.33-1.35.08-.54.87-9.74.87-9.74l.1-.08a7.45 7.45 0 0 0 4.06 1.75L31.24 40.6a3.07 3.07 0 0 1-2.93 2.5l-17.66-.02a3.07 3.07 0 0 1-2.92-2.51L6.1 30l.56-.1a8.86 8.86 0 0 0 4.64 2.92Z" class="cls-1"/></svg>
