<svg width="21" height="24" fill="none" xmlns="http://www.w3.org/2000/svg"><path d="M16.33.5c.72.2 1.05.72 1.19 1.42.12.58.28 1.16.42 1.74l1.08 4.4a1.62 1.62 0 0 1-.27 1.45.43.43 0 0 0 .02.6c.1.13.2.25.32.37a3.52 3.52 0 0 1 .96 2.52v8.88c0 .19-.01.37-.04.55A1.74 1.74 0 0 1 18.3 24h-4.4a1.75 1.75 0 0 1-1.73-1.63 9.26 9.26 0 0 1-.03-.66v-8.58c0-1.06.3-1.98 1.05-2.74l.1-.12c.34-.4.34-.43.06-.87a1.42 1.42 0 0 1-.23-1.14l1.64-6.67a1.37 1.37 0 0 1 1-1.04.38.38 0 0 0 .08-.04h.5Zm2.54 11.78a8.6 8.6 0 0 0-.43-.78 7.47 7.47 0 0 0-.52-.61 1.57 1.57 0 0 1-.1-2.04.56.56 0 0 0 .09-.5l-1-4.07-.58-2.33c-.03-.11-.15-.27-.24-.29-.18-.03-.22.15-.26.3l-.01.04-1.55 6.27a.72.72 0 0 0 .13.65 1.5 1.5 0 0 1-.01 1.78c-.18.24-.39.46-.58.68-.22.26-.38.57-.45.9h5.5ZM2.92 7.33V5.87H1.64c-.49 0-.65-.17-.65-.65V3.59c0-.42.18-.6.6-.6h7.98c.44 0 .61.18.61.62v1.63c0 .46-.16.62-.64.63h-1.3v1.37c0 .05.1.12.17.14.98.31 1.6.96 1.82 1.96.05.23.08.47.07.7V22.6c0 .9-.5 1.4-1.4 1.4H2.28c-.91 0-1.4-.5-1.4-1.4V10.02c0-1.15.5-2.02 1.55-2.51.15-.07.32-.12.5-.18Zm-.87 4.3h7.1c0-.61.03-1.21-.01-1.81-.06-.83-.58-1.32-1.4-1.38-.42-.04-.64-.27-.65-.69V5.88h-3v1.74c0 .57-.18.77-.77.82-.62.06-1.2.54-1.25 1.15-.06.67-.02 1.36-.02 2.05Z" fill="#fff"/></svg>