<svg width="25" height="25" fill="none" xmlns="http://www.w3.org/2000/svg"><path d="M16.83.83h.93l.43.07c3 .44 5.54 2.77 6.16 5.7.43 2.04 0 3.88-1.5 5.38-3.57 3.52-7.13 7.04-10.71 10.55a5.6 5.6 0 0 1-4.1 1.64 6.83 6.83 0 0 1-3.84-1.2 7.3 7.3 0 0 1-3.23-4.65l-.14-.8v-.91l.04-.16c.1-1.3.68-2.51 1.63-3.43L13.2 2.47a5.31 5.31 0 0 1 2.44-1.4c.39-.1.8-.16 1.2-.24Zm-1.5 16.3L7.97 9.88l-.15.14-4.11 4.06a3.97 3.97 0 0 0-1.17 3.81 5.62 5.62 0 0 0 3.73 4.35c1.84.69 3.53.4 4.96-1.05 1.29-1.32 2.63-2.6 3.94-3.9l.16-.16Z" fill="#fff"/></svg>