<svg width="19" height="24" fill="none" xmlns="http://www.w3.org/2000/svg"><path d="m7.27 1.66.08-.01h2.49c.08 0 .16.05.23.11.37.36.72.74 1.1 1.1.13.11.3.2.47.24.28.05.55-.12.68-.37.13-.28.08-.58-.16-.82-.44-.45-.9-.89-1.33-1.34a.95.95 0 0 0-.73-.3H4.34a.68.68 0 0 0-.65.57.67.67 0 0 0 .4.74c.12.04.24.06.36.06h1.42V3.2h-.7c-.48 0-.75.27-.75.75v2.18h4.3V3.97c0-.48-.28-.76-.76-.76h-.7V1.66Zm7.46 7.9h-.03v1.1a2.14 2.14 0 0 0 4.21.43c.24-.91-.02-1.7-.67-2.36L15.32 5.8l-.92-.91a.66.66 0 0 0-.74-.16c-.27.1-.4.31-.43.6-.02.24.1.42.27.6.56.58.95 1.25 1.08 2.05.1.52.1 1.05.15 1.58ZM2.56 23.67c-.5-.11-.99-.26-1.4-.59a2.78 2.78 0 0 1-1.15-2.25V11.3c.01-.21.09-.42.23-.58.96-1.04 1.95-2.07 2.93-3.1a.4.4 0 0 1 .26-.1c2.09-.01 4.18-.01 6.28 0 .1 0 .2.04.27.12l2.9 3.06a.82.82 0 0 1 .24.6v9.47c0 1.44-1 2.59-2.42 2.85a.57.57 0 0 0-.1.04H2.56Zm4.7-7.34h.77c.4-.02.69-.3.7-.68a.7.7 0 0 0-.68-.7h-.8v-.73c0-.42-.3-.73-.68-.74-.4 0-.68.31-.69.75v.72h-.73c-.44.01-.73.29-.74.68 0 .4.3.69.75.69h.71l.01.25v.53c.01.4.3.68.67.69.38 0 .67-.28.7-.67.02-.26 0-.51 0-.79Z" fill="#fff"/><path d="M7.27 1.66v1.55h.69c.48 0 .76.28.76.76v2.16h-4.3V3.96c0-.48.27-.75.75-.75h.7V1.64H4.45c-.12 0-.24-.01-.35-.05a.67.67 0 0 1-.4-.74.67.67 0 0 1 .64-.57H10.1a.95.95 0 0 1 .73.3c.44.45.9.89 1.33 1.34.24.24.3.54.16.82-.13.25-.4.42-.68.36a1.03 1.03 0 0 1-.47-.24c-.38-.35-.73-.73-1.1-1.1a.38.38 0 0 0-.23-.1H7.27ZM14.73 9.56c-.04-.53-.06-1.06-.15-1.58a3.9 3.9 0 0 0-1.08-2.05c-.17-.17-.29-.36-.27-.6.02-.29.16-.5.43-.6a.66.66 0 0 1 .73.15c.32.3.62.61.93.92l2.92 2.92c.65.66.9 1.45.67 2.36a2.15 2.15 0 0 1-4.2-.42c-.03-.37 0-.73 0-1.1h.02Z" fill="#fff"/></svg>