<svg width="23" height="25" fill="none" xmlns="http://www.w3.org/2000/svg"><path d="M17.1 20.36a3.89 3.89 0 1 1 .06-7.77 3.89 3.89 0 0 1-.06 7.77ZM7.84 13.74a3.89 3.89 0 1 1 .03-7.77 3.89 3.89 0 0 1-.03 7.77ZM8.54 3.15a1.25 1.25 0 0 1-1.26-1.22A1.25 1.25 0 0 1 8.97.75a1.24 1.24 0 0 1-.43 2.4ZM16.38 5.23a1.23 1.23 0 0 1-2.1.87 1.24 1.24 0 0 1-.38-.87 1.26 1.26 0 0 1 1.27-1.25 1.24 1.24 0 0 1 1.2 1.25ZM3.9 24.33a1.22 1.22 0 0 1-1.16-1.68 1.26 1.26 0 0 1 1.15-.8 1.26 1.26 0 0 1 1.23 1.25 1.23 1.23 0 0 1-1.22 1.23ZM12.5 24.33a1.23 1.23 0 0 1-1.25-1.22 1.27 1.27 0 0 1 1.27-1.25 1.25 1.25 0 0 1 .85 2.13 1.22 1.22 0 0 1-.88.34ZM1.88 17.05a1.22 1.22 0 0 1-1.21-1.24 1.24 1.24 0 0 1 1.23-1.24 1.27 1.27 0 0 1 1.24 1.27 1.24 1.24 0 0 1-1.26 1.21ZM8.52 19.04a1.23 1.23 0 0 1-.87-2.1c.24-.25.56-.38.9-.38a1.25 1.25 0 0 1 1.11 1.72 1.23 1.23 0 0 1-1.14.76ZM23 23.1a1.22 1.22 0 0 1-1.22 1.23 1.23 1.23 0 0 1-.87-2.1c.23-.24.55-.37.87-.37A1.24 1.24 0 0 1 23 23.1Z" fill="#fff"/></svg>