<svg width="18" height="24" fill="none" xmlns="http://www.w3.org/2000/svg"><path d="m8.5 0 .11.2c1 1.5 2.02 3 3.03 4.48.1.16.1.26 0 .41-.73 1.05-1.43 2.1-2.14 3.16a5.47 5.47 0 0 0 7.24 7.78l.23-.11c-.13.6-.2 1.15-.36 1.67-.6 2-1.8 3.58-3.54 4.72a8.17 8.17 0 0 1-3.39 1.27 8.33 8.33 0 0 1-5.16-.9 8.35 8.35 0 0 1-3.58-3.62 8.33 8.33 0 0 1-.93-4.3c.08-1.5.5-2.91 1.35-4.17C3.68 7.12 6.01 3.66 8.35.2l.1-.2h.05Z" fill="#fff"/><path d="m14.02 3.87.15.21 3.16 4.8c1.63 2.46.12 5.88-2.78 6.27a4 4 0 0 1-4.5-3.6c-.1-.95.1-1.84.62-2.64l3.23-4.88.12-.16Z" fill="#fff"/></svg>