<svg width="25" height="24" fill="none" xmlns="http://www.w3.org/2000/svg"><path d="M6.9 23.67c-.2-.17-.44-.32-.64-.51C4.4 21.3 2.54 19.45.7 17.58a1.46 1.46 0 0 1-.32-.51.56.56 0 0 1 .17-.64l2.58-2.24h.02l6.69 6.69-.75.86-1.36 1.57c-.13.14-.3.24-.44.36H6.9ZM24 1.15l-1.07 1.6-1.68-1.68L22.87 0 24 1.1v.05ZM11 19.5 4.5 13l9.84-8.53 5.2 5.2L11 19.5Zm.02-7.71-.83.83c-.08.07-.15.16-.21.25a.85.85 0 0 0 .18 1.08.84.84 0 0 0 1.13-.03c.3-.3.6-.6.9-.93l.81.82c.08.09.18.17.28.23a.85.85 0 0 0 1.08-.21.85.85 0 0 0-.05-1.12c-.29-.3-.6-.59-.9-.88a.6.6 0 0 1 .05-.07l.7-.7.19-.2a.86.86 0 0 0-.63-1.4.84.84 0 0 0-.6.22c-.3.3-.59.62-.9.95-.31-.32-.58-.6-.87-.87a1.2 1.2 0 0 0-.5-.28.8.8 0 0 0-.9.43.82.82 0 0 0 .14.99l.93.89ZM18.52.86l4.63 4.63-2.43 2.8-5.01-5L18.5.86Z" fill="#fff"/></svg>