<svg width="21" height="21" fill="none" xmlns="http://www.w3.org/2000/svg"><path d="M20.83 4.17c-.26.38-.5.4-.84.07l-.4-.42-2.27 2.27.15.09c.41.4.83.8 1.23 1.23.72.75.43 1.91-.55 2.18-.4.11-.8.04-1.12-.23-.24-.2-.45-.42-.68-.64l-.18.16-8.25 8.26c-.19.19-.39.27-.66.24a4.92 4.92 0 0 1-2.37-.74.98.98 0 0 1-.13.2 1770.1 1770.1 0 0 1-3.95 3.93.4.4 0 0 1-.52-.06.4.4 0 0 1-.06-.52c.06-.08.12-.15.19-.21l3.74-3.74.18-.15c-.3-.46-.5-.97-.6-1.51-.06-.33-.1-.66-.13-.98-.02-.2.08-.35.21-.48l2.16-2.16 6.12-6.12.23-.19c-.2-.19-.39-.35-.56-.53-.5-.52-.55-1.23-.1-1.77.43-.53 1.25-.63 1.77-.18.46.4.88.86 1.31 1.29.07.06.13.14.18.2l2.26-2.24-.43-.4c-.33-.34-.31-.59.08-.85h.24l.4.33 3.02 3.03c.12.12.22.26.33.4v.24ZM10.3 7.93l.07.02c.67.14 1.33.25 1.99.43.82.21 1.64.4 2.5.43.06 0 .16 0 .2-.04.23-.21.45-.44.64-.64l-2.8-2.8-2.6 2.6Zm2.76 2.8-.85-.84-.12-.12c-.2-.16-.43-.16-.6 0a.42.42 0 0 0 0 .6c.31.33.65.65.98.97l.59-.61Zm-4.32 4.34c-.32-.34-.64-.68-.98-1a.4.4 0 0 0-.57 0c-.16.14-.2.4-.04.56.34.35.7.67 1.02.99l.57-.55Zm2.17-2.19-.54-.52c-.19-.17-.43-.17-.6-.01a.42.42 0 0 0-.01.6c.17.2.37.37.54.54l.6-.6Z" fill="#fff"/></svg>