<svg width="22" height="24" fill="none" xmlns="http://www.w3.org/2000/svg"><path d="M18.7.47c.2.1.41.18.6.3.28.2.44.5.5.85L21.1 8.9l.51 2.97c.13.76-.36 1.44-1.13 1.58l-6.86 1.2-3.24.58c-.53.1-.86-.13-.94-.65l-.15-.86c-.1-.46-.42-.68-.9-.6l-2.6.46c-.43.07-.77-.16-.86-.6l-.15-.88c-.09-.5-.42-.73-.92-.64l-1.88.33c-.45.08-.8-.15-.87-.58C.73 9.16.37 7.11.02 5.06a1.34 1.34 0 0 1 1.1-1.56l3.91-.7A237535.2 237535.2 0 0 1 18.2.47h.5ZM8.76 23.03c0-.12.03-.25.08-.36a.96.96 0 0 1 .24-.31c.1-.1.23-.16.36-.2a1.23 1.23 0 0 1 1.2.21c.1.09.17.2.23.31.05.12.08.24.08.37a.9.9 0 0 1-.33.67 1.19 1.19 0 0 1-1.2.2 1.11 1.11 0 0 1-.35-.2.96.96 0 0 1-.23-.32.85.85 0 0 1-.08-.37ZM4.65 16.04a1.08 1.08 0 0 1 1.1-1.07 1.1 1.1 0 0 1 1.1 1.1 1.11 1.11 0 0 1-1.12 1.09 1.1 1.1 0 0 1-1.08-1.12ZM3.69 18.53c.25 0 .5.1.68.31.18.2.28.48.28.77 0 .3-.1.57-.28.78a.92.92 0 0 1-.67.33.86.86 0 0 1-.37-.09.96.96 0 0 1-.31-.23 1.23 1.23 0 0 1-.28-.77 1.1 1.1 0 0 1 .27-.78c.09-.1.2-.19.31-.24a.84.84 0 0 1 .37-.08ZM1.64 22.08c.15 0 .29.03.42.08a.96.96 0 0 1 .6.52c.05.11.08.24.08.36 0 .26-.12.5-.33.68a1.19 1.19 0 0 1-1.2.2 1.11 1.11 0 0 1-.35-.2.96.96 0 0 1-.23-.32.86.86 0 0 1 0-.73.96.96 0 0 1 .24-.31 1.22 1.22 0 0 1 .78-.28ZM4.65 23.05c0-.13.03-.26.08-.37a.95.95 0 0 1 .24-.32 1.21 1.21 0 0 1 .77-.28c.29 0 .57.1.77.28.21.18.33.42.33.68 0 .25-.11.5-.32.67a1.19 1.19 0 0 1-1.19.22 1.11 1.11 0 0 1-.36-.2.96.96 0 0 1-.23-.32.85.85 0 0 1-.09-.36ZM7.8 18.53c.13 0 .26.03.37.08.12.06.23.14.31.24.1.1.16.23.2.36a1.18 1.18 0 0 1-.22 1.19.9.9 0 0 1-.67.32.9.9 0 0 1-.67-.34 1.21 1.21 0 0 1-.2-1.2c.04-.12.12-.24.2-.34.1-.1.2-.18.32-.24a.84.84 0 0 1 .37-.07Z" fill="#fff"/></svg>