<svg width="20" height="24" fill="none" xmlns="http://www.w3.org/2000/svg"><g clip-path="url(#a)" fill="#fff"><path d="M20 0v4.2l-.22.02h-1.83c-.99 0-1.6-.41-2.11-1.4H10V4.2H2.9A3.58 3.58 0 0 1 5.83.05L6 0h4v1.4h5.85c.21-.54.57-.95 1.1-1.2.19-.08.38-.13.57-.2H20ZM5.7 19.77h1.44V9.84H10.62c1.33 0 2.24.9 2.24 2.22v9.72c0 1.32-.91 2.22-2.26 2.22H2.25C.92 24 0 23.1 0 21.79v-9.75c0-1.29.92-2.2 2.23-2.2h3.48v9.93ZM1.44 5.64h9.98v2.82H1.44V5.64Z"/></g><defs><clipPath id="a"><path fill="#fff" d="M0 0h20v24H0z"/></clipPath></defs></svg>