<svg width="23" height="24" fill="none" xmlns="http://www.w3.org/2000/svg"><path d="M19.55 11.45V3.98c0-.57-.15-.73-.72-.73h-6.81c-.53 0-.7.17-.7.69v7.52c-1.27.13-2.36-.13-3.22-1.1-.37-.42-.74-.84-1.13-1.23a.75.75 0 0 0-.46-.2c-.58-.03-1.17-.01-1.76-.02-.44 0-.62-.18-.63-.63V3.37c0-.44.19-.63.63-.63H6.5a.57.57 0 0 0 .5-.21c.36-.42.74-.82 1.11-1.24A3.27 3.27 0 0 1 10.66.17h8.97c1.22 0 1.98.76 1.98 1.98v7.46c0 1.14-.93 1.98-2.06 1.84ZM.46 20.4h5.69c-.07.88.13 1.68.91 2.2a2 2 0 0 0 1.34.35c1.18-.11 1.76-.9 1.88-2.56h11.33c.45 0 .48.03.48.47v2.05c0 .44-.1.5-.52.4-1.5-.4-3-.82-4.5-1.14a16.5 16.5 0 0 0-4.4-.2.33.33 0 0 0-.1.07c-.66 1.15-1.74 1.6-2.97 1.78a11 11 0 0 1-4.69-.15A8.14 8.14 0 0 1 .6 20.7c-.05-.1-.1-.2-.13-.3Z" fill="#fff"/><path d="M18.5 11.47h-6.13V4.31h6.13v7.16ZM6.15 14.23a2.11 2.11 0 0 1-1.28 1.91c-.79.37-1.51.2-2.13-.37a2.01 2.01 0 0 1-.6-2.22 7.4 7.4 0 0 1 1.74-2.67.47.47 0 0 1 .56.11c.68.8 1.31 1.63 1.64 2.66.03.09.04.18.06.28l.01.3ZM7.14 19.35H.78c.43-.67 1-1 1.75-1.02H10.2c.77 0 1.37.32 1.82 1.02h-2.8v1.44c0 .67-.43 1.14-1.04 1.14-.59 0-1.01-.47-1.01-1.13l-.01-1.35a.48.48 0 0 0-.03-.1Z" fill="#fff"/></svg>