<svg width="17" height="24" fill="none" xmlns="http://www.w3.org/2000/svg"><path d="M12.35 7.92c.18.17.36.36.58.53l1.35.99c.8.6 1.2 1.4 1.21 2.4v2.21l-.07.06c-.18-.2-.35-.41-.55-.6a7.13 7.13 0 0 0-.7-.63c-.67-.49-1.62-.52-2.25 0a11.52 11.52 0 0 0-3.7 4.9 5.2 5.2 0 0 0 1.5 5.93l.1.1-.24.02H3.82a2.97 2.97 0 0 1-3.07-3.06v-8.86c0-1.06.43-1.9 1.3-2.53l1.31-.96c.1-.07.22-.13.27-.23.17-.33.44-.33.76-.28.12.02.24.02.35.01h7.61ZM8.94 13.6h.8c.5-.02.84-.37.84-.82 0-.45-.36-.78-.85-.8h-.79v-.72c0-.54-.34-.9-.83-.9-.47 0-.8.37-.8.89v.73h-.76c-.12 0-.23.02-.35.05a.8.8 0 0 0-.53.86c.06.4.38.68.81.7h.82v.77c.01.48.37.85.83.85.46 0 .8-.37.81-.84v-.77ZM7.96 6.68H4.54c-1.14 0-1.95-.75-1.97-1.87-.02-.76-.02-1.53 0-2.29.02-1.1.81-1.85 1.95-1.85h6.9c1.13 0 1.92.74 1.95 1.82.02.79.03 1.59 0 2.38-.03 1.08-.84 1.8-1.95 1.8l-3.46.01Z" fill="#fff"/><path d="M13.2 23.83c-2.7 0-4.62-2.2-4.29-4.6.18-1.32.79-2.43 1.6-3.43.58-.7 1.23-1.32 1.87-1.95.32-.32.74-.32 1.08-.04a11.09 11.09 0 0 1 3.1 3.99c.61 1.42.63 2.83-.23 4.16a3.84 3.84 0 0 1-3.13 1.87Z" fill="#fff"/></svg>