<svg width="24" height="24" fill="none" xmlns="http://www.w3.org/2000/svg"><path d="M.17 15.6c.07-.43.13-.85.23-1.26.26-1.04.75-2 1.44-2.84l.09-.1 10.84 10.62c-.3.2-.6.42-.93.62a7.59 7.59 0 0 1-3.42 1.09H7.3a7.62 7.62 0 0 1-6.9-5.7c-.1-.4-.16-.83-.23-1.25V15.6ZM24 8.26c-.08.42-.13.85-.24 1.27a7.48 7.48 0 0 1-2.32 3.79 7.77 7.77 0 0 1-4.1 1.86l-.52.05a8.85 8.85 0 0 0-2.13-4.97l7.54-7.35a7.13 7.13 0 0 1 1.73 4.05c0 .07.02.13.04.2v1.1ZM13.73 20.99 2.91 10.17a7.66 7.66 0 0 1 10.15.29c3.2 3 3.08 7.74.67 10.53ZM21.26 1.9l-7.53 7.3a9.23 9.23 0 0 0-5.07-2.07 7.35 7.35 0 0 1 4.3-6.2 7.89 7.89 0 0 1 8.3.97Z" fill="#fff"/></svg>